<svg class="logo" xmlns="http://www.w3.org/2000/svg" viewBox="0 0 285.027 154.846">
        <path fill="#ffc82d" d="M206.39 87.916 60.28 99.476l4.38 55.37 146.11-11.55zm-119.38 46.89c-.22 1.37-.73 2.73-1.55 4.1-.24.39-.56.86-.97 1.38-.4.53-.91 1.05-1.54 1.56s-1.39.96-2.28 1.34c-.9.38-1.94.61-3.13.71-.85.06-1.9.02-3.14-.14q-1.86-.24-3.75-1.32-.81-.495-1.32-.84c-.35-.23-.6-.44-.77-.64-.17-.19-.29-.37-.35-.53-.07-.17-.11-.35-.12-.56-.03-.34.01-.61.11-.83.1-.21.32-.62.65-1.23.06-.11.15-.29.29-.54.13-.25.27-.51.42-.8s.28-.55.4-.8.19-.41.22-.48c.11-.32.26-.64.44-.96s.47-.5.88-.53c.37-.03.76.13 1.17.47.11.13.2.25.28.36.08.12.17.24.29.37.26.25.64.49 1.16.73.51.23 1.08.32 1.69.27.54-.04.94-.15 1.18-.32q.36-.255.6-.54c.54-.52.85-1.07.94-1.66s.11-1.23.06-1.9c-.05-.68-.11-1.26-.16-1.74-.06-.47-.12-.88-.2-1.21-.08-.34-.17-.63-.28-.88-.1-.25-.25-.5-.44-.76-.73-1-1.79-1.45-3.19-1.34-.58.05-1.11.19-1.61.43-.16.12-.33.25-.5.4-.18.16-.35.3-.51.45-.26.2-.49.3-.69.32-.14.01-.28-.02-.42-.07-.14-.06-.5-.26-1.07-.59-.28-.11-.43-.3-.46-.58 0-.06-.01-.23-.03-.48q-.03-.39 0-.54c0-.1 0-.3-.02-.59 0-.29-.02-.6-.05-.94-.02-.34-.04-.67-.05-.98 0-.3 0-.52-.02-.66-.05-.58-.1-1.13-.16-1.66-.06-.52-.11-1.07-.16-1.65l-.3-3.78c-.02-.37-.05-.74-.08-1.12-.03-.37-.08-.74-.14-1.12-.01-.03-.03-.16-.06-.38s-.06-.46-.08-.74c-.06-.3-.11-.64-.13-1.01 0-.1-.02-.28-.02-.54s.07-.51.22-.76q.045-.105.42-.57c.25-.31.51-.48.78-.5.07-.01.23-.01.49-.01.25-.01.42.01.49.03.34-.02.62-.04.84-.04s.47 0 .74-.03c.14-.01.36-.04.66-.08.31-.04.64-.07 1-.1.35-.03.68-.06.99-.11.3-.04.52-.06.66-.07.17-.02.49-.03.97-.05.48-.03.98-.06 1.51-.1q.78-.06 1.53-.09.735-.045 1.05-.06c.34-.03.63-.05.86-.07.24-.02.46-.05.66-.1.14-.05.25-.08.35-.11.11-.02.22-.04.36-.05.37-.03.68.06.92.29.24.22.39.44.44.68l.06.71q0 .105.03.39c.01.18.04.39.07.63.04.24.06.46.08.66.02.21.03.34.03.41q.015.21.09.84c.05.42.09.72.1.89.09 1.09-.4 1.67-1.45 1.76H81.6c-.1 0-.35.04-.73.09-.39.05-.66.08-.79.09-.21.01-.42.03-.64.05-.22.01-.44.01-.64 0-.17.01-.5.01-.98 0-.48-.02-.8-.02-.97 0-.38.03-.67.11-.88.25-.21.13-.36.31-.45.52-.08.21-.13.44-.12.68 0 .24.01.47.03.71 0 .21.03.38.04.51.01.14.06.37.16.71q.135.405.24.54c.08.1.25.14.53.12.1-.01.31-.05.63-.11.32-.05.53-.09.63-.1q1.275-.09 2.19.03c.6.09 1.13.22 1.57.4.44.17.81.37 1.12.6s.58.46.8.68c.71.7 1.17 1.23 1.39 1.61.21.38.43.78.63 1.21.29.66.62 1.57.99 2.74.36 1.17.63 2.84.81 5.02q.18 2.295-.15 4.35m22.09.59c-.3.88-.76 1.74-1.36 2.59-.6.86-1.24 1.55-1.91 2.08-.55.42-1.3.85-2.26 1.28-.96.44-1.98.7-3.07.78-.99.08-1.94.03-2.86-.15-.92-.19-1.8-.54-2.63-1.05-.71-.43-1.47-1.24-2.27-2.44-.79-1.21-1.4-2.66-1.81-4.38-.14-.5-.27-1.21-.39-2.12-.13-.92-.24-1.83-.35-2.74-.11-.92-.2-1.76-.28-2.52-.07-.77-.12-1.27-.14-1.51-.01-.13-.03-.41-.07-.81-.03-.41-.05-.85-.07-1.31s-.05-.89-.08-1.3-.05-.7-.07-.87l-.19-2.44c-.19-2.35-.06-4.32.38-5.91s1.06-2.9 1.87-3.92c.15-.22.39-.5.7-.85q.48-.525 1.23-1.05c.5-.35 1.11-.66 1.82-.94.72-.28 1.53-.45 2.45-.53.58-.04 1.25-.04 2 0 .76.04 1.53.19 2.32.43.79.25 1.55.62 2.29 1.1.74.49 1.39 1.16 1.93 2.01.47.71.86 1.58 1.18 2.6s.59 2.07.79 3.14c.21 1.08.37 2.16.49 3.22.12 1.07.21 2.03.28 2.88.08 1.09.16 2.18.23 3.27q.105 1.635.18 3.27c.09 1.6.14 3.09.15 4.45 0 1.37-.15 2.62-.48 3.74m24.76-.39c-.02.56-.16 1.13-.43 1.7-.29.64-.77 1.24-1.44 1.81-.68.56-1.44.93-2.28 1.1-1.09.09-1.96.16-2.62.23-.67.07-1.29.13-1.89.18-.59.04-.94.07-1.04.08-.41.03-.73-.06-.95-.28-.22-.23-.35-.47-.37-.75 0-.06-.01-.23-.01-.51-.01-.27-.01-.44-.02-.51l-.09-1.22c-.01-.14-.03-.45-.05-.95-.03-.49-.04-.83-.06-1 0-.06-.03-.28-.07-.66-.05-.37-.08-.61-.09-.71-.04-.58.04-1 .26-1.25.22-.26.4-.41.53-.45.07-.04.37-.09.92-.13.2-.01.48-.08.83-.19s.54-.43.56-.94c0-.04 0-.24-.02-.59-.01-.36-.02-.76-.04-1.21-.02-.44-.05-1.02-.11-1.73-.06-.79-.14-1.55-.23-2.3-.1-.74-.17-1.5-.24-2.29l-.76-9.69c-.04-.51-.1-1.11-.17-1.81-.07-.69-.15-1.38-.24-2.06-.09-.67-.17-1.27-.25-1.8-.07-.52-.13-.87-.18-1.04 0-.13-.03-.27-.06-.4-.03-.14-.04-.27-.06-.41-.03-.47.06-.82.28-1.02.23-.21.47-.32.75-.34h.28c.15.01.25.01.28 0l2.14-.16c.38-.03.75-.07 1.12-.12.38-.04.75-.08 1.12-.11.79-.06 1.35-.04 1.7.07q.525.165.63 1.44c0 .13.03.38.06.74.03.35.06.73.09 1.12l.15 1.91c.01.14.04.38.08.74.05.35.09.74.12 1.14.03.41.07.8.12 1.18.04.37.07.62.08.76.01.07.02.21.04.43l.03.69c0 .24.01.47.02.69.02.22.04.39.04.49.01.1.02.27.04.51s.05.5.09.79q.06.435.09.81c.02.26.04.43.04.54.01.07.01.24.02.53.01.3.01.49.02.59s.05.37.12.79c.06.42.1.7.11.84l.07.81c.01.11.02.28.04.51.02.24.04.5.08.77q.06.405.09.78c.02.26.04.44.04.54l.21 2.55c.01.17.03.49.04.95.02.46.04.94.07 1.45.02.52.04 1 .06 1.46s.04.79.06 1c0 .1.02.27.04.51.01.24.04.49.08.76s.07.53.09.76c.02.24.03.41.04.51.03.35.03.8 0 1.37m22.63 2.49c-.1.01-.26.02-.49.02s-.45.01-.69.02q-.36.03-.69.03c-.22 0-.38.01-.48.02-.11 0-.3.03-.59.07s-.58.09-.89.15c-.3.05-.59.1-.86.14s-.45.06-.56.07q-1.32.105-1.59-.36c-.18-.31-.29-.74-.33-1.28-.01-.14-.05-.44-.12-.89-.07-.46-.11-.76-.13-.89-.02-.27-.06-.56-.11-.87q-.09-.45-.33-.84c-.16-.26-.37-.48-.64-.64-.27-.17-.63-.24-1.07-.2-.13 0-.25.03-.35.05-.1.03-.25.06-.46.11-.26.09-.46.18-.59.26q-.195.12-.42.54c-.09.18-.15.34-.19.48q-.06.21-.06.54c0 .22 0 .53.02.93.01.39.03.94.05 1.66.02.2.02.41 0 .62-.02.2-.08.4-.18.58-.11.17-.28.33-.51.47-.22.14-.56.23-1 .26h-.39c-.18 0-.38-.02-.59-.04a6 6 0 0 0-.62 0c-.2.02-.52.04-.96.08-.28.02-.53.04-.77.06s-.49.06-.76.11c-.4.1-.68.16-.83.17-.16.01-.4.03-.74.06-.55.04-.89-.07-1.03-.33s-.22-.5-.24-.7c-.04-.51-.02-1.15.06-1.9.08-.76.17-1.49.29-2.18.16-1.01.28-2.02.37-3.04.1-1.01.19-2.02.28-3.02.04-.79.07-1.55.1-2.29q.045-1.11.21-2.25c.03-.41.08-.83.13-1.24.05-.42.12-.82.19-1.2.09-.93.19-1.86.29-2.79.1-.94.21-1.85.35-2.75.08-.62.16-1.25.23-1.87.08-.62.17-1.24.29-1.87.11-.86.22-1.73.34-2.59.12-.87.23-1.75.33-2.65l.07-1.08c.01-.17.04-.35.05-.54.02-.19.04-.37.07-.55.03-.37.1-.74.19-1.09s.38-.54.85-.58q.21-.015.69-.03.495-.015 1.05-.06c.38-.03.72-.04 1.05-.05q.48-.015.69-.03c.13-.01.36-.04.66-.08.31-.04.63-.07.97-.1s.66-.06.97-.1c.3-.05.52-.07.66-.08q.51-.045.87.03c.24.05.47.26.67.62.07.13.18.43.3.9s.24.97.35 1.51q.165.81.33 1.56c.11.51.2.86.29 1.06.05.23.11.45.18.65.06.2.12.42.18.65q.135.405.21.81c.06.27.13.54.22.8.11.47.23.93.37 1.36.13.43.27.88.41 1.35.32 1.07.66 2.3 1.01 3.67.35 1.38.67 2.7.98 3.98.31 1.27.57 2.39.78 3.35s.34 1.55.4 1.79c.21.97.43 1.96.64 2.95.22.99.47 1.98.75 2.94.09.37.2.76.32 1.16s.22.79.32 1.15c.08.17.17.46.28.88.1.42.16.77.18 1.04.07.81-.36 1.26-1.28 1.33zm22.34-1.76h-.49c-.23 0-.45.01-.69.03q-.345.03-.69.03c-.23 0-.38 0-.48.01a15 15 0 0 0-1.47.22c-.31.06-.59.1-.86.14-.28.04-.46.07-.56.07-.89.07-1.42-.05-1.6-.36s-.29-.74-.33-1.28c-.01-.14-.05-.43-.12-.89s-.11-.75-.12-.89c-.03-.27-.07-.56-.12-.86-.06-.3-.17-.59-.33-.85-.15-.26-.37-.47-.64-.64s-.62-.23-1.07-.2c-.13.01-.25.03-.35.06-.1.02-.25.06-.45.11-.27.09-.47.17-.6.25s-.27.26-.42.55c-.09.18-.15.34-.19.47-.04.14-.06.33-.06.55s.01.53.02.92.03.95.05 1.66c.02.21.02.41 0 .62s-.08.4-.18.58c-.11.18-.28.34-.5.47-.23.14-.57.23-1.01.26-.07.01-.2.01-.39.01-.18 0-.38-.01-.59-.03-.2-.02-.41-.02-.61 0-.21.01-.53.04-.97.07-.28.02-.53.04-.77.06s-.49.06-.76.11c-.4.11-.68.16-.83.17-.16.02-.4.04-.74.06-.55.04-.89-.06-1.03-.33-.14-.26-.22-.49-.23-.7-.05-.51-.03-1.14.05-1.9s.17-1.49.29-2.18c.16-1 .29-2.01.38-3.03l.27-3.03c.04-.79.07-1.55.1-2.29q.045-1.11.21-2.25c.03-.41.08-.83.13-1.24s.12-.81.19-1.2c.1-.93.19-1.86.29-2.79s.21-1.85.35-2.75c.09-.62.16-1.24.24-1.86.07-.63.16-1.25.28-1.87.11-.87.22-1.73.34-2.6q.18-1.29.33-2.64l.07-1.08.06-.55q.015-.285.06-.54c.03-.38.1-.75.19-1.1s.38-.54.85-.58c.14-.01.37-.02.7-.03.32 0 .67-.02 1.04-.05q.57-.045 1.05-.06t.69-.03c.14-.01.36-.03.66-.08.31-.04.63-.07.97-.1.34-.02.66-.06.97-.1.3-.04.52-.07.66-.08.34-.03.63-.01.87.03.25.05.47.26.67.62q.12.195.3.9c.12.47.24.97.35 1.51s.22 1.06.33 1.57c.11.5.2.85.29 1.05.05.24.11.45.18.65q.09.3.18.66c.09.26.16.53.22.8q.075.405.21.81c.11.47.23.92.37 1.35.13.44.27.89.41 1.36.33 1.07.66 2.29 1.01 3.66.35 1.38.68 2.7.98 3.98.31 1.28.57 2.39.78 3.35s.35 1.56.4 1.79c.21.98.43 1.96.64 2.95.22 1 .47 1.98.75 2.95.1.37.2.75.32 1.15s.22.79.32 1.16c.08.16.18.46.28.87.1.43.16.77.18 1.04.07.82-.36 1.26-1.28 1.34zm24.72-2.6c-.23.38-.72.6-1.47.65-.1.01-.27.02-.51.02s-.49.01-.77.03c-.27.03-.53.04-.79.04-.25.01-.43.01-.54.02-.1.01-.27.03-.5.06-.24.04-.5.08-.79.12s-.56.08-.81.11c-.26.04-.43.06-.54.07-.64.05-1.05-.06-1.23-.34-.18-.27-.36-.7-.54-1.26a5 5 0 0 0-.27-.83c-.12-.31-.25-.62-.38-.92-.12-.3-.29-.66-.49-1.09-.2-.36-.39-.72-.55-1.09-.17-.36-.35-.72-.55-1.08-.32-.59-.57-1.19-.76-1.79-.22-.6-.42-1.09-.6-1.49-.19-.4-.47-.58-.84-.55-.27.02-.46.11-.55.25s-.13.25-.13.32c-.02.1-.03.31-.02.61 0 .31.01.65.03 1.03.01.38.03.73.06 1.07.02.34.04.58.05.72.03.37.07.7.11.99s.06.51.08.69c0 .1.03.31.07.63s.1.66.16 1.02c.06.35.11.69.16 1.01.04.32.07.55.08.69 0 .1.01.26.01.48s-.04.45-.13.68c-.08.23-.22.44-.41.62-.19.19-.47.3-.85.33-.1 0-.28.01-.53.01-.26.01-.53.01-.8.01-.27.01-.55.01-.82.02-.27 0-.46.01-.56.02-.21.01-.4.04-.59.07-.18.03-.38.07-.58.12-.1.01-.33.05-.68.13s-.58.13-.68.13a1.2 1.2 0 0 1-1.03-.38c-.28-.28-.45-.77-.5-1.45l-.05-.56q-.03-.405-.03-.69c0-.19 0-.39-.02-.61s-.04-.48-.06-.77q-.03-.435-.09-1.2c-.02-.13-.03-.39-.04-.76-.01-.38-.04-.77-.07-1.18q-.045-.615-.06-1.17c-.02-.38-.03-.65-.04-.82-.02-.17-.03-.32-.04-.46s-.02-.3-.04-.49c-.01-.18-.04-.42-.08-.71-.04-.28-.08-.67-.12-1.14-.13-1.29-.26-2.75-.37-4.39-.11-1.63-.22-3.11-.32-4.44l-.68-9.8c-.01-.24-.04-.57-.07-.99-.04-.43-.06-.86-.08-1.31-.02-.44-.04-.85-.05-1.22-.01-.38.01-.62.07-.73.14-.45.44-.74.91-.87.47-.12.87-.19 1.21-.22.11-.01.29-.02.54-.04s.53-.04.82-.04c.29-.01.56-.02.82-.04.25-.02.43-.04.53-.04h.1c.11-.02.3-.04.59-.08s.6-.09.94-.13.65-.08.94-.12c.28-.04.48-.07.58-.08.68-.08 1.33-.16 1.96-.23.63-.06 1.26-.12 1.91-.17.31-.03.7-.04 1.18-.05q.72 0 1.56.24c.56.16 1.16.43 1.81.81.64.37 1.28.95 1.93 1.72.48.54.87 1.06 1.15 1.55.27.49.5 1.03.66 1.61.17.59.3 1.26.39 2 .1.75.2 1.64.32 2.7 0 .13.04.36.08.68s.08.66.13 1.02c.04.35.09.7.13 1.04.05.34.07.58.09.71.03.41.03.94-.01 1.59-.03.66-.13 1.34-.3 2.06q-.24 1.065-.78 2.16-.525 1.095-1.38 1.98c-.28.3-.47.5-.57.61q-.135.165-.12.42c.02.17.08.34.2.5l.34.49c.08.16.16.31.24.44s.16.28.24.44c.2.36.36.67.49.92.12.24.24.5.37.76.12.27.25.55.4.87.14.31.34.73.58 1.26.33.69.68 1.38 1.04 2.05s.7 1.34 1.03 2c.12.23.22.45.31.66.08.22.14.46.16.73.02.31-.08.65-.3 1.03"/>
        <path fill="#ffc82d" d="M101.68 132.336c-.09 1.07-.55 1.63-1.38 1.7-.77.06-1.27-.28-1.48-1.04-.21-.75-.36-1.67-.44-2.76l-.84-10.56c-.01-.13-.02-.43-.04-.89s-.04-.76-.05-.9c-.01-.17-.04-.48-.1-.94-.05-.46-.08-.77-.1-.94-.04-.54.02-1.07.18-1.58s.55-.79 1.15-.84c.4-.03.73.06.98.26s.44.48.57.83.22.73.27 1.16c.05.42.09.82.12 1.19.01.14.02.36.02.67l.03 1 .03.99c.01.31.01.52.02.62.02.2.05.56.11 1.07s.11 1.04.15 1.6c.05.56.1 1.09.15 1.58.06.5.1.84.11 1.05l.39 4.84c.01.17.04.5.1.97.05.47.07.78.05.92M146.99 124.106c-.32.11-.61.18-.88.2-.38.03-.71 0-.99-.08s-.43-.29-.46-.63c0-.1.01-.43.05-1s.09-1.19.14-1.86.1-1.33.15-1.96c.05-.64.09-1.08.1-1.32 0-.03.01-.16.02-.39.02-.22.04-.45.08-.69.03-.25.06-.47.1-.68.03-.21.07-.31.1-.32q.405-.03.48.84c0 .07.08.45.24 1.13.16.69.33 1.46.51 2.3.19.84.36 1.62.52 2.34.16.73.25 1.14.26 1.24.03.48-.11.77-.42.88M193.17 113.886c-.18.38-.4.67-.67.9-.28.23-.56.39-.86.48s-.57.15-.81.17c-.44.03-.79-.03-1.04-.2-.26-.17-.45-.39-.57-.65-.12-.27-.21-.57-.25-.93-.05-.36-.08-.72-.11-1.1-.05-.54-.07-1.08-.08-1.61s-.03-1.06-.08-1.61c-.01-.17-.05-.5-.13-.99-.07-.49-.11-.82-.13-.99-.03-.44.05-.78.23-1.02.19-.24.67-.38 1.46-.45.2-.01.43-.02.69-.02.25 0 .5.06.76.19.24.14.49.36.72.66.22.31.4.75.51 1.32.04.14.09.38.14.74.04.35.09.72.13 1.09.05.37.09.73.11 1.07.03.34.05.58.06.71.05.17.08.31.08.43l.03.38c.05.58-.01 1.06-.19 1.43"/>
        <path fill="#ffc82d" d="M101.68 132.336c-.09 1.07-.55 1.63-1.38 1.7-.77.06-1.27-.28-1.48-1.04-.21-.75-.36-1.67-.44-2.76l-.84-10.56c-.01-.13-.02-.43-.04-.89s-.04-.76-.05-.9c-.01-.17-.04-.48-.1-.94-.05-.46-.08-.77-.1-.94-.04-.54.02-1.07.18-1.58s.55-.79 1.15-.84c.4-.03.73.06.98.26s.44.48.57.83.22.73.27 1.16c.05.42.09.82.12 1.19.01.14.02.36.02.67l.03 1 .03.99c.01.31.01.52.02.62.02.2.05.56.11 1.07s.11 1.04.15 1.6c.05.56.1 1.09.15 1.58.06.5.1.84.11 1.05l.39 4.84c.01.17.04.5.1.97.05.47.07.78.05.92M147.41 123.226c.03.48-.11.77-.42.88-.32.11-.61.18-.88.2-.38.03-.71 0-.99-.08s-.43-.29-.46-.63c0-.1.01-.43.05-1s.09-1.19.14-1.86.1-1.33.15-1.96c.05-.64.09-1.08.1-1.32 0-.03.01-.16.02-.39.02-.22.04-.45.08-.69.03-.25.06-.47.1-.68.03-.21.07-.31.1-.32q.405-.03.48.84c0 .07.08.45.24 1.13.16.69.33 1.46.51 2.3.19.84.36 1.62.52 2.34.16.73.25 1.14.26 1.24M169.75 121.466c.04.47-.1.77-.42.88s-.61.17-.88.19c-.38.03-.7.01-.98-.07-.29-.08-.44-.29-.46-.63-.01-.11 0-.44.04-1.01s.09-1.18.14-1.86c.05-.67.1-1.32.15-1.96.06-.64.09-1.07.1-1.32 0-.03.01-.16.02-.38.02-.23.05-.46.08-.7s.06-.47.1-.68c.03-.2.07-.31.1-.31.27-.02.43.26.48.83q0 .105.24 1.14c.16.69.33 1.45.52 2.29.18.84.36 1.63.52 2.35s.24 1.13.25 1.24M193.36 112.456c.05.58-.01 1.06-.19 1.43-.18.38-.4.67-.67.9-.28.23-.56.39-.86.48s-.57.15-.81.17c-.44.03-.79-.03-1.04-.2-.26-.17-.45-.39-.57-.65-.12-.27-.21-.57-.25-.93-.05-.36-.08-.72-.11-1.1-.05-.54-.07-1.08-.08-1.61s-.03-1.06-.08-1.61c-.01-.17-.05-.5-.13-.99-.07-.49-.11-.82-.13-.99-.03-.44.05-.78.23-1.02.19-.24.67-.38 1.46-.45.2-.01.43-.02.69-.02.25 0 .5.06.76.19.24.14.49.36.72.66.22.31.4.75.51 1.32.04.14.09.38.14.74.04.35.09.72.13 1.09.05.37.09.73.11 1.07.03.34.05.58.06.71.05.17.08.31.08.43z"/>
        <path fill="#010101" d="M219 19.156v-1.43c0-8.84-4.23-13.23-12.75-13.23-8.47 0-12.81 4.45-12.81 13.23v17.63c0 8.79 4.34 13.29 12.81 13.29S219 44.196 219 35.356v-11.09h-13.12v7.88h3.31v4.82c0 2.68-.8 3.97-2.94 3.97s-3-1.29-3-3.97v-20.79c0-2.68.8-4.02 2.94-4.02 2.19 0 2.99 1.34 2.99 4.02v2.98zM187.64 53.096h9.7v34.51h10.61v8.41h-20.31zM9.59 33.166v3.48c0 2.89 1.02 4.29 3.16 4.29 1.93 0 3.21-1.39 3.21-3.48 0-1.82-1.12-3.59-3.32-5.36-3.32-2.62-6.38-4.82-8.73-7.23-2.25-2.3-3.38-5.41-3.38-8.95 0-7.13 4.56-11.41 12.59-11.41s11.95 3.64 11.95 10.93v3.54h-9.16v-2.95c0-2.73-.91-4.02-3.06-4.02-1.71 0-2.84 1.29-2.84 3.16 0 2.47 2.41 4.39 6.65 7.88 3.59 3 6.27 5.14 7.45 7.34.96 1.77 1.5 3.97 1.5 6.48 0 7.29-4.72 11.73-13.07 11.73S0 44.366 0 36.376v-3.21zM34.54 13.386h-6.32v-8.31h22.35v8.31h-6.33v34.62h-9.7zM54.17 5.086h9.7v42.92h-9.7zM79.97 48.656c-8.47 0-12.81-4.5-12.81-13.29v-17.63c0-8.79 4.34-13.23 12.81-13.23s12.75 4.39 12.75 13.23v3.32h-9.81v-4.88c0-2.68-.8-4.02-3-4.02s-2.95 1.34-2.95 4.02v20.79c0 2.68.81 3.97 3 3.97s2.95-1.29 2.95-3.97v-5.89h9.81v4.29c0 8.84-4.23 13.29-12.75 13.29M96.14 5.086h9.7v15.86h5.68V5.086h9.7v42.92h-9.7v-18.7h-5.68v18.7h-9.7zM130.68 13.386h-6.32v-8.31h22.34v8.31h-6.32v34.62h-9.7zM149.84 5.086h9.7v42.92h-9.7zM162.68 5.086h10.88l5.04 17.42c1.29 4.39 2.3 8.57 3.16 12.43-.8-5.89-.86-10.5-.86-13.93V5.096h9.43v42.92h-10.5l-5.57-18.43c-1.23-4.13-2.2-8.25-3-12.49.59 6.64.86 12.33.86 16.99v13.93h-9.43V5.096zM0 53.096h10.24l1.66 17.63c.11 1.34.43 6.22.91 14.52.53-6.54 1.07-11.41 1.39-14.57l1.82-17.58h10.02l-6.96 42.92H6.81l-6.8-42.92zM29.18 53.096h9.7v34.51h10.61v8.41H29.18ZM61.69 84.976c0 2.68.75 3.96 2.89 3.96s2.95-1.29 2.95-3.96v-31.88h9.7v30.28c0 8.84-4.23 13.29-12.65 13.29s-12.6-4.5-12.6-13.29v-30.28h9.7v31.88zM93.22 96.656c-8.47 0-12.81-4.5-12.81-13.29v-17.63c0-8.79 4.34-13.24 12.81-13.24s12.75 4.39 12.75 13.24v3.32h-9.81v-4.88c0-2.68-.8-4.02-3-4.02s-2.94 1.34-2.94 4.02v20.79c0 2.68.8 3.96 3 3.96s2.94-1.29 2.94-3.96v-5.89h9.81v4.29c0 8.84-4.23 13.29-12.75 13.29M109.08 53.096h9.7v15.86h5.68v-15.86h9.7v42.92h-9.7v-18.7h-5.68v18.7h-9.7zM143.63 61.396h-6.32v-8.31h22.35v8.31h-6.32v34.62h-9.7v-34.62zM162.79 53.096h21.7v8.31h-12v8.52h10.61v8.2h-10.61v9.59h12.38v8.31h-22.08v-42.92zM211 53.096h9.7v42.92H211ZM223.85 53.096h10.88l5.04 17.41c1.29 4.4 2.31 8.58 3.16 12.43-.8-5.89-.86-10.5-.86-13.93v-15.91h9.43v42.92h-10.51l-5.57-18.43c-1.23-4.13-2.19-8.25-3-12.49.59 6.64.85 12.33.85 16.99v13.93h-9.43v-42.92zM279.94 67.166v-1.43c0-8.84-4.23-13.24-12.75-13.24h-.01c-8.46 0-12.8 4.45-12.8 13.24v17.63c0 8.79 4.34 13.29 12.8 13.29s12.75-4.45 12.75-13.29v-11.09h-13.12v7.88h3.31v4.82c0 2.68-.8 3.96-2.94 3.96-2.19 0-2.99-1.29-2.99-3.96v-20.79c0-2.68.8-4.02 2.94-4.02 2.19 0 3 1.34 3 4.02v2.98h9.82z"/>
        <path fill="#ffc82d" d="M284.69 19.966h-.4c.03 0 .07 0 .12-.01.07 0 .15-.04.21-.06s.15-.09.29-.18c.11-.07.13-.13.11-.21 0 0-.04-.1-.1-.12a.26.26 0 0 0-.15 0c-.05.02-.19.06-.19.06l-.37.02.18-.05s.37-.17.45-.21c.13-.07.15-.16.12-.24s-.16-.08-.16-.08-.11.01-.15.03c-.03.01-.13.03-.13.03s-.08 0-.11.01c-.03 0-.07 0-.21.03-.06.01-.08.03-.13.06s-.2.05-.23.07c-.03.01-.16-.05-.16-.05l.12-.09c.19-.16.1-.45.07-.54-.04-.11-.11-.07-.16.02s-.24.16-.24.16.04-.08-.02-.16c-.06-.07 0 0-.03-.03s-.04-.11-.05-.16-.03-.25-.04-.28c-.02-.03-.03-.22-.04-.28s0-.33 0-.33l.02-.15-.09-.22s-.13-.22-.15-.27c-.03-.05-.01-.08.03-.12.04-.05 0 0 .07-.07.06-.06.02-.17.02-.17l-.09-.3-.05-.15-.19-.13-.12-.11.15-.1c.41-.16.46-.67.52-.74s.08-.27.08-.27l.06-.11.03-.05.09-.03s.17-.05.25-.06c.07-.01.38-.29.41-.34.04-.05.42-.6.63-1.76.22-1.16-.74-1.83-.74-1.83s-.09-.15-.12-.18-.22-.12-.28-.15-.25-.06-.25-.06l-.23-.1s-.36-.05-.45-.08a.6.6 0 0 0-.23 0c-.02.02-.2.03-.2.03h-.27c-.08 0-.06 0-.35.03s0 0-.14.03-.1.05-.13.08c-.02.02-.19.13-.32.23-.06-.12-.1-.23-.12-.34-.06-.28.22-.96.26-1.3s-.07-.72-.18-.89c-.11-.16-.25-.61-.25-.61h.13c.17.21.27.88.27.88.08-.28-.16-.82-.16-.82.21.36.62.55.62.55-.21-.14-.61-.6-.6-.63 0 0 .07.05.3.11.37.09.48 0 .53-.05.11-.11.16-.14.22-.35 0-.03.02-.24.02-.28 0-.05.17-.11.23-.16.07-.05.04-.2.04-.2.26-.05.18-.32.19-.42 0-.1.04-.07.04-.07.36.05.43.07.5-.07.05-.1-.01-.37-.03-.46-.02-.14-.11-.73-.11-.73-.02-.1-.05-.19.11-.42.15-.23.19-.51.19-.51s.06-.1.11-.19.13-.35.16-.66-.04-.45-.07-.52-.13-.25-.16-.29-.06-.18-.14-.26a6 6 0 0 0-.46-.42c-.09-.08-.29-.24-.45-.36s-.4-.28-.53-.31c-.13-.04-.45-.18-.56-.23s-.33-.15-.47-.16-.32-.05-.32-.05c-.76-.06-1.41.34-1.96.72-.54.38-.75.85-.88 1.13s-.22.65-.46.89-.46.81-.51.94c-.06.13-.17.46-.31.68s-.36.82-.36.82c-.21.15-.42.46-.52.69s-.28.43-.26.43.31-.25.39-.48.32-.49.32-.49l.02.11s-.35.74-.4.82-.29.2-.55.3-.53.24-.72.39-.4.19-.66.41c-.26.23-.32.41-.32.41s-.79.33-.85-.15c0 0-.03-.02-.06.04 0 0-.06-.18.03-.28 0 0-.22.13-.04.46 0 0-.15-.05-.14-.22 0 0-.07.1-.04.2 0 0-.07-.08-.08-.15 0 0-.08.23.24.36h-.07s.32.23.71.14c0 0-.14.26-.94.47 0 0 .39.02.81-.3 0 0-.66.48-.75.73 0 0-.13.15-.13.3 0 0 .04-.08.12-.16 0 0-.05.09-.06.22-.02.04-.06.16-.1.22-.05.07 0 0-.09.06s-.08.07-.08.07-.06.21-.08.29c0 .08-.06.18-.07.25 0 .07-.1.06-.17.08-.08.03-.15.07-.3.17l-.15.09-.08.08c-.08.08-.18.18-.27.24s-.59.64-.59.64l-.15.27s-.2.13-.3.18c-.1.06-.24.11-.29.17l-1.38 1.4-.17.12s-.2.21-.24.26c-.04.06-.15.33-.16.35-.01.03-1.31 2.6-1.31 2.65s-1 1.85-1.01 1.9c0 .06-.06.13-.04.26s-.1.22-.14.34-.08.37-.07.41c.02.04-.31.34-.35.39s-.12.21-.16.31-.02.1-.06.16c-.03.07-.14.36-.14.36s-.43.73-.47.78 0 .09.01.11c0 .02.29.15.32.17.02.01-.08.15-.08.15h-.06l-.17.02-.12-.07s-1.03.21-1.1.23c-.06.02-.16 0-.3.05 0 0-.13-.02-.24-.02-.1 0-.11-.05-.11-.05s-.32-.07-.43-.09-.07-.02-.18 0c-.11.01 0 0-.07.04s-.06.03-.34.22c-.29.19-.05 0-.14-.04-.08-.04-.05 0-.26-.03-.21-.02-.22.08-.22.08s-.15.02-.23.05-.11.03-.21.07c-.11.04-.04.04-.07.14-.04.11-.07.1-.14.13s-.11-.1-.13-.14c-.03-.04-.03-.12-.09-.16-.06-.03-.12.03-.12.03l-.28.12c-.08.02-.2.03-.23.05-.04.01-.1.02-.2.02-.09 0-.15.04-.22.07-.08.04 0 0-.02.05s-.05.07-.09.12-.03.06-.04.09c-.01.02-.02.07-.02.07s0 .07-.13 0c-.04-.02-.1 0-.15-.02-.04-.02-.18 0-.18 0l-.13.06s-.12.02-.13.05c0 .02-.12.05-.12.05l-.19.05-.04-.06s.02-.05.06-.06l.17-.04c.09-.02.14-.11.12-.27-.03-.16-.08-.49-.13-.65-.03-.09.02-.18.07-.24.01.02.03.04.06.05.07.03.17-.02.17-.02s-.08-.01-.13-.04c-.02-.01-.04-.04-.02-.09.02-.04.23-.24.25-.3s.02-.19.09-.21c.08-.03.26-.21.26-.21s.19-.72.17-.78c-.02-.07-.05-.15-.02-.24.03-.1.03-.11.02-.2-.01-.1 0-.05-.04-.12-.02-.08-.2-.33-.21-.4-.02-.06-.04-.19-.08-.25s-.03-.09-.08-.11-.91-1.05-.95-1.08-1.17-.77-1.25-.81-.05 0-.16-.01c-.1-.01-.13-.04-.2-.05-.07 0-.1.01-.15.03-.06.01-.12.03-.19.04-.07.02-.09 0-.14-.02-.05 0-.1-.02-.16-.03-.06 0-.05.01-.18.05-.14.04-.06.02-.12.04-.05.02-.05 0-.14.03s-.04.02-.09.05c-.03.02-.1.05-.15.06-.05.02-.15.07-.15.07s-.14-.08-.16-.09c-.02-.02 0-.11 0-.11s0-.13.02-.15c0-.03.02-.36.03-.38 0-.02-.03-.09-.03-.09s-.04-.09-.06-.12c-.02-.02-.03-.11-.03-.11s-.05-.12-.07-.14.01-.12-.02-.2-.04-.38-.07-.43c-.04-.04-.05-.38-.06-.47-.02-.08.32-.69.34-.75.01-.05.13-.57.11-.63-.03-.05.07-.79.09-.83.01-.05 0-.05.02-.13.01-.07 0-.09 0-.12l-.01-.33s.01-.27.02-.29c0-.03.06-.13.06-.13l.06-.29.02.04s.07.08.12.13.12.07.16.1c.04.04.1.05.13.07.02.02.16.04.19.05s.13 0 .17 0 .08-.02.14-.04c.05-.02.06-.02.15-.06s.08-.03.12-.06c.03-.02.03-.05.04-.1 0-.04.03-.1.03-.13s.04-.04.05-.07c.01-.02.07-.02.1-.03.02 0 .19-.1.22-.11.03-.02.14-.13.15-.15s.17-.02.23 0c.06.01.13.02.16.05.02.03.26.01.36-.02s.09-.37.15-.33h.01c.06.04.16.09.25.12.1.03.14-.02.24-.06s.24-.46.24-.47.04-.19.05-.2c0-.01.23-.37.23-.4 0-.02.04-.04.05-.06.02-.02.05-.11.05-.11l.05-.04c.1.18.21.19.21.19h.01s0-.02-.06-.06a.5.5 0 0 1-.1-.18l.23.02s.1-.1.26-.12.25-.17.27-.31c.03-.13.14-.49.28-.63.13-.15.33-.36.33-.36v-.13c0-.03.1.06.12.04s.13-.08.13-.08l.27-.09s.06-.08.08-.14.04-.32.04-.32.02-.11.03-.19c0-.08 0-.12-.01-.18-.02-.05-.05-.61-.03-.65s0-.12-.01-.17c-.01-.04-.03-.12-.06-.14-.04-.02-.3-.98-.33-1.01-.02-.02-.28-.33-.34-.39s-.11-.26-.2-.33c-.1-.08-.31-.31-.4-.36-.08-.05-.45-.42-.51-.44s-.16-.12-.22-.14c-.07-.03-.24-.08-.29-.09-.04 0-.17-.06-.19-.07-.03-.02-.61-.07-.68-.05-.06 0-.12 0-.16.03-.04.02-.18 0-.23 0-.05.01-.21 0-.31.05-.1.04-.09.05-.14.1-.06.06-.13.03-.18.05s-.15.03-.21.08c-.06.04-.07.02-.13.05-.06.04-.09.06-.14.1s-.14.04-.2.07-.15.01-.18.02c-.03 0-.09 0-.15.02s-.09.01-.12.05-.25.14-.25.14-.09.02-.14.1c-.05.07-.04.04-.08.07s-.09.06-.09.06-.06.04-.08.08c-.03.04-.06.07-.14.13s-.04.04-.12.09 0 0-.02.04-.05.14-.05.14-.03.08-.08.09c-.04 0-.08 0-.13.03s-.06.23-.1.25-.07.1-.07.1l-.05.16-.03.15s.01.27.02.31c0 .04-.03.18-.07.23-.04.04-.18.26-.28.31-.09.05-.06.05-.06.05s-.08.2-.13.23c-.05.04-.18.11-.24.13s-.14.04-.22.01c-.08-.02.03-.18.03-.18s-.09-.33-.1-.36c0-.03-.01-.13-.04-.17-.02-.04-.11-.08-.17-.09s-.38-.52-.41-.55c-.03-.04-.11-.11-.16-.17s-.04-.04-.11-.08-.15-.02-.28-.05-.1-.04-.17-.07-.07-.02-.12-.05-.11-.01-.15-.01a.6.6 0 0 0-.14.04c-.05 0-.11 0-.25.03-.06.02-.22.05-.22.05l-.15-.05s-.05-.03-.14-.1c-.09-.08 0 0-.11-.04s-.12-.04-.23-.08c0 0-.27.05-.39.08-.11.03-.18.06-.18.06l-.08.07-.28.11h-.2c-.04 0-.2-.02-.24-.03h-.56c-.07.01-.73.06-.78.07s-.24.04-.34.05-.21.04-.28.06c-.08.02-.3.14-.34.16l-.62.48-.29.08-.15.07s-.11.08-.14.1-.11.02-.15.02-.14.06-.19.07-.27.09-.38.12c-.11.04-.71.24-.71.24-.03 0-.19.03-.23.03-.03 0-.36.15-.44.18-.08.02-.18.1-.22.1s-.21.02-.24.03c-.02 0-.27.13-.34.12-.08-.01-.45.05-.56.06-.11.02-.25.13-.44.25s-.84.82-1.02.99c-.17.18-.07.85-.08.93-.01.07-.08.17-.09.69-.02.52-.04.86 0 1.03s.09.93.12 1.01c.03.09.32 1.14.32 1.14s.4 1.29.48 2.34c-.42.42-.43.43-.8.78l-.08.08c-.74.17-.47.83-1.07.94h-.11c-.17.01-.31.07-.28.33.02.06.04.11.04.16.07.6-1.25-.03-.86.61-.02.02-.04.05-.07.07-.22.26-.38.54-.51.91-.01.03-.02.07-.04.1-.59.19.04.11-.4.51 0 .05-.36.48-.39.52-.33.36.47.41.45.59-.25.53.53.92-.06.86 0 .03.02.07.02.1.18.8.2 1.56.73 2.48.01.02.02.03.04.05q.135.18.36.42l-.13.1.08.11s-.15.36-.16.42c0 .05-.28.5-.24.59 0 0 .07.53.06.59 0 .05-.09.82-.06.9.03.09-.06.17-.13.34-.07.16 0 .33 0 .42s-.14 1.02-.16 1.09-.03.31 0 .48c.02.16.02.24-.03.31-.05.08 0 .46-.05.53-.05.08-.33 1.57-.29 1.66.03.08.18.19.28.31.1.11-.02.21 0 .3s-.13.19-.22.28c-.09.08-.08.05-.08.05s-.12-.02-.14-.03-.17-.02-.55.08c-.38.11-.33.16-.53.19-.2.02-.43.09-.43.09s-1.7.65-1.77.84-.28.09-.42.26c-.15.17-.42.22-.53.31-.11.08-.56.22-.86.36-.29.14-1.02.39-1.2.45-.18.07-.16.08-.31.14s-.22.19-.34.33-.3.18-.47.28-.45.15-.68.25-.66-.02-.66-.02l-.78.52s-.05 0-.16.01c-.1.01-.24-.02-.24-.02s-.1-.01-.44.02c-.1.01-.08.02-.17.04-.09.03-.07 0-.15 0s-.05-.02-.23 0c-.17 0-.1.04-.19.09s-.41.23-.44.26-.35.58-.36.58c-.02 0-.15.02-.23.04s-.29.12-.38.15-.24.12-.41.17c-.18.05-.63.28-.69.3s-.18.12-.18.12l-.1.17-.1-.06-.25.11s-.17.04-.22.08-.17.16-.2.23c-.03.08-.08.32-.12.53s.05.34.04.43c0 .09.49 1.57.52 1.6s.28.17.3.21.12.05.16.11c.05.06.48 1.42.47 1.48 0 .06.39 1.02.41 1.15.03.13 1.44 1.23 1.92 1.41.47.19.67.15.74.16l1.04.16c.06.02.76-.19.76-.19s.11-.32.1-.35c0-.03-.03-.2-.03-.2l-.16-.08v-.07c.03-.09.02-.42 0-.48-.03-.07-.05-.1-.16-.24-.12-.14-.07-.12-.17-.19s-.03-.08-.1-.11-.3-.18-.41-.2c-.11-.01-.14-.12-.27-.18s-.1-.22-.1-.22-.04-.24-.07-.28c-.02-.04-.02-.23-.02-.23s.21-.11.34-.27c.14-.16.17-.2.2-.27s.09-.67.12-.71c.04-.04.06-.11.14-.16s.22-.2.24-.23c.02-.02.26-.18.31-.23.05-.06.13-.04.17-.03.03 0 .74-.17.81-.18h.69c.19 0 .52-.01.61-.01.08 0 1.4-.27 1.54-.3s.15-.08.45-.18.09-.06.38-.21c.28-.15.3-.21.38-.25s1.83-1.28 2.03-1.4.32-.17 1.02-.6c.69-.43.24-.19.28-.22s1.91-1.03 2.38-1.26c.31-.15.23-.12.18-.1-.03 0-.02 0 0 0 0 0 .01 0 .02-.01.17-.08.17-.13.23-.15.07-.02.2-.17.24-.18.04 0 .64-.48.68-.49.05 0 .95-1.36.95-1.36l.11-.41.13-.49c.04-.2-.03-.27-.06-.3-.02-.03.37-1.4.37-1.4l.02-.18.04-.27s.35-1.16.35-1.24.1-.36.1-.36.03-.21.07-.28.05-.18.15-.24c.11-.06.14-.17.23-.25.1-.08.21-.32.21-.32s.07-.19.12-.22c.05-.02.33-.35.33-.35l.14.19s.29.22.44.32c.14.09.26.17.36.23.1.05.69.54.73.6.03.06.2.18.23.21s.41.28.57.42c.16.15.26.2.34.24.07.05.8.66.82.75.01.09.2.16.2.16s.27.07.4.11c.12.03.42.21.44.3l.02.2s.12.18.14.23.35.28.35.28.3.04.33.05c.03 0 .13.08.13.08l-.16.25.06.19s-.05.31-.05.33c0 .03.34.32.34.32s-.03.1-.09.14c-.07.03-.12.16-.16.22s0 .86 0 .86l-.03.29.16.31-.04.08s0 .24-.02.3c0 .06.04.65.04.65l-.05 1.37-.15.04s-.21.06-.28.11-.1.13-.17.18-.37.12-.38.13c0 0-.26.06-.31.05-.04 0-.19-.05-.27-.05s-.11.03-.17.04c-.07 0-.19.04-.22.02s-.07-.1-.07-.1h-.25s-.12.02-.19 0a.8.8 0 0 1-.26-.07c-.07-.03-.23-.06-.31-.08s-.26-.05-.34-.06-.57.24-.62.3c-.06.06-.12.32-.15.45-.04.13-.06.7-.06.76s.13.35.12.51-.13.93-.1 1.15.45 1.49.45 1.49.7.89.76.95.18 0 .26 0 .19-.07.25-.15.03-.28.03-.48.14-.81.17-.87.12-.29.12-.29l.14-.23.16-.06-.04.12s-.04.11-.13.28c-.1.18 0 0-.08.1 0 0 .04.13.12.24.06.08 0-.18.02-.22s.2-.35.2-.35l.02-.3.12-.13s.24-.21.25-.24c.01-.02.13-.07.15-.1s.15-.08.18-.08.31-.13.31-.13.12.01.15.02h.36s.31-.33.34-.3.02.13.08.23.04.06.05.12c0 .06-.02.19 0 .27s.01.24.05.35c.04.12.17.44.19.47s-.03.21-.04.27c0 .06-.07.05-.07.05s-.07.15-.08.22c0 .07-.03.12-.04.17 0 .04 0 .18-.01.28-.02.09-.01.18.01.23s.19.35.19.35-.16.12-.19.12-.16.05-.16.05l-.11.21h-.26s.04.1.08.16c.03.05.04.11.04.14 0 .02.18.13.24.19.05.05.12.12.11.15 0 .02.12.25.14.31.03.06 0 .19-.03.26-.02.07-.08.17-.12.18-.04.02-.23.93-.4 1.17s-.06.91-.09.92-.15.14-.15.14-.03.87-.02.9c0 .03.05.04.11.07.07.03.23.04.36.05.13 0 .22.03.29.03s.41.07.47.07c.07 0 .16.02.23.02s.19.03.19.03l.23.02.34.04h.14l.24.06.22.03.14-.03.45-.26s.12.02.15.02q.06 0 .18.03c.08.01.4.08.5.1s.3.06.36.07.46.1.57.11.32.04.38.05c.06 0 .49.02.6.02h.56c.05 0 .94-.08.97-.08.02 0 .14-.02.34-.08.2-.05 1.8-.49 1.87-.63.08-.15-.17-.44-.17-.44h-.13s-.11-.04-.13-.08a.6.6 0 0 1-.02-.13c0-.03-.03-.16-.05-.2s-.04-.11-.06-.15-.13-.13-.13-.13-.06-.07-.12-.11-.04-.05-.09-.09-.16-.05-.29-.08c-.04 0-.24-.03-.27-.02h-.54c-.06 0-.22-.02-.27 0-.06.01-.24 0-.28-.02-.04 0-.2-.06-.3-.08s-.16-.07-.26-.1-.28-.14-.31-.15c-.02-.01-.14-.3-.14-.3s.19 0 .21-.02c.02 0 .22.05.25.06.04 0 .25.05.32.06.06 0 .25.04.4.06q.15.02.56.1c.41.08.16.04.24.06s.14.04.21.06.18 0 .18 0 .2.01.39.09c.05.02.08.01.15.02s.25-.03.34-.02c.08 0 .82-.14 1.07-.26s.19-.07.28-.1c.08-.04.16-.1.16-.1l.06-.1c.06-.1 0 0 .04-.1s.01-.15.01-.15v-.09l-.14-.23-.34-.16-.2-.06s-.05-.01-.13-.03-.15-.06-.2-.07c-.05 0-.16-.06-.25-.07s-.14-.11-.17-.12c-.03 0-.11-.07-.14-.08-.04 0-.19-.06-.19-.06s-.09-.13-.08-.16c0-.03-.01-.09-.01-.09s-.06-.07-.1-.08c-.04-.02-.12-.2-.12-.2l-.13-.13s.08-.1.06-.13c-.01-.03-.03-.1-.09-.18 0 0-.14-.23-.18-.23s-.25 0-.24-.03c.02-.03.03-.05.07-.06.04-.02.06-.13.1-.16.03-.03-.08-.15-.08-.15l-.12.09s-.22.04-.27.02c-.05-.01.09-.1.14-.1.06 0 .09-.1.15-.16s-.01-.22.02-.28c.04-.06.1-.19.1-.19s-.05-.83-.06-.87-.1-.13-.09-.19c0-.05.03-.14.03-.29s-.12-.98-.15-1.04c-.03-.05.02-.13.05-.19.03-.07.03-.49.09-.54s-.16-.23-.16-.23-.17-.13-.15-.17c.01-.03.1-.25.1-.25l.14-.57c.04-.16-.33-1.36-.38-1.46-.04-.11-.03-.3-.08-.34-.06-.05-.45-.92-.48-.96s.05-.2.05-.2v-.18c0-.06-.04-.07-.08-.14s-.09-.09-.14-.13c-.05-.03-.19-.07-.26-.09-.07 0-.12-.07-.11-.12 0-.04.04-.14.02-.21-.03-.08-.23-.34-.2-.32.03.01.12-.01.2-.02.08 0 .11-.28.11-.28v-.05l.05-.04c.05-.04.05-.08.1-.15s.01-.13 0-.16c0-.03-.05-.12-.08-.19-.04-.08-.02-.12-.03-.17s.05-.09.09-.13c.04-.03.15-.13.21-.17s.19-.25.27-.29c.08-.03.23-.22.28-.3.05-.07.09-.38.09-.38l.14-.32s.39-1.01.41-1.09c.03-.09.12-.56.12-.59 0-.02.18-1.21.19-1.24.01-.04.09-.93.09-.93s.18-.21.21-.25c.04-.04.25-.17.25-.17s.12-.1.13-.15c0-.05-.13-.32-.13-.32s.14.08.18.12.14.07.21.11.17.06.28.06c.1 0 .2 0 .25-.05.07-.07.1-.14.11-.19 0-.05-.09-.2-.17-.25-.07-.05-.24-.22-.3-.25-.05-.02-.33-.42-.33-.42s-.03-.08 0-.09c.02-.02.03-.2.02-.27-.02-.08-.07-.26-.07-.26h-.01s.18 0 .31.02.58.02.82 0c.24-.01.53-.2.66-.25.12-.05.32-.31.32-.33s.04-.1.05-.14c0-.03.06-.06.07-.08s.06-.02.09-.02c.04 0 .14-.02.21-.03.06 0 .12 0 .17-.02.05 0 .17-.04.3-.04s.29-.05.31-.05.13-.01.19-.02c.06 0 .12-.03.22-.05.09-.02.56-.3.57-.32 0-.02.07-.09.1-.11.03-.01.21-.09.29-.11.08-.01.18-.05.18-.05s.28-.3.29-.33c.01-.02.03-.05.04-.07.02-.02.05-.06.07-.07.01-.02.08 0 .09 0 .02 0 .09-.01.12-.03.02-.02.09-.03.12-.05.04-.02.08-.05.12-.08s.12-.03.17-.05c.04-.03.13-.04.19-.04.07 0 .25.03.26.03.02 0 .06 0 .09-.02.04-.02.07-.08.07-.08l.02-.18s.04.08.18.13c.13.05.3-.08.3-.08.01.12.17.25.32.29.07.02.28-.11.28-.11s.07.11.11.14c.03.02.18.1.33.07s.22-.22.22-.22c.15 0 .22.09.22.11 0 0-.07.29-.09.35s-.11.69-.11.69-.15.51-.21.74c-.06.22-.28.6-.31.69-.04.09-.68 2.11-.69 2.2 0 .08-.44 1.31-.44 1.38s.04.22.04.22.15.17.19.25.48.38.79.53c.31.14.57.39.62.46.04.05 1.49.91 2.12 1.31-.07.04-.13.07-.17.09-.11.06-.45.53-.73.69-.27.15-.92 1.02-.95 1.05-.03.02-1.11 1.25-1.16 1.29-.04.04-.87.92-.9.93-.03 0-.07.07-.1.09-.02.02-.15.12-.25.2s0 .24-.12.23c0 0-.31.15-.33.19-.01.03-.07.08-.08.1-.02.02-.13.11-.17.14-.04.04-.06.1-.09.12-.02.02-.2.12-.25.14-.06.02-.09.19-.1.22 0 .02-.27.19-.27.19s-.15.1-.18.11c-.03 0-.23.18-.37.37s-.13.57-.13.57-.08.04-.12.04h-.03s-.1.01-.15.03-.09.06-.18.1-.05.15-.09.22c-.05.07 0 .15-.04.24-.05.09.04.2.06.25.02.04.2.09.32.17.04.03.18.11.24.15s.15.11.37.25l.2.06s.24.06.3.09c.06.02.13.06.15.08.03.02.28.1.33.11.04.02.24.09.26.11.02.01.33.13.36.16.04.03.25.13.29.14.04.02.18.06.21.07.02.02.44.22.49.24s.28.04.35.07c.07.02.6.2.7.22.11.02.53.04.59.05s.72.01.86.01.38-.05.44-.06c.06-.02.38-.21.4-.25.02-.05.11-.12.06-.17 0 0-.15-.02-.14-.04s.03-.11.02-.15c0-.04 0-.06-.02-.09-.01-.04-.12-.05-.12-.05s-.21-.06-.23-.06-.16-.05-.18-.06c-.03 0-.21-.1-.31-.15-.1-.04-.23-.11-.23-.11l-.24-.16s.07.02.02 0c-.04-.03-.28-.28-.34-.32-.06-.03-.28-.28-.28-.28l-.5-.48-.14-.22.02-.16.07-.08s.11-.1.14-.16 0-.14 0-.14l-.04-.15s.04-.13.13-.11c.08.02.15-.06.18-.13.04-.07.05-.32.11-.38.07-.07.26-.17.35-.22.08-.05.41-.3.62-.39.22-.09.25-.28.62-.48.37-.21 1.7-1.37 1.84-1.48.13-.11.21-.21.31-.3.1-.1.38-.3.64-.4.25-.1 1.72-.98 1.72-.98.96-.03 2.29.76 2.29.76l-.02.07s-.04.17-.06.22-.2.65-.2.65-.06.17-.08.2c0 .04-.53 1.17-.54 1.22-.01.04-.17.33-.2.4q-.02.07-.07.13c-.04.06-.04.14-.07.21-.02.07.06.53.06.53s-.06.06-.11.08-.06.02-.17.07c-.1.05-.01.1-.02.17s-.03.21-.17.28c-.1.02 0 0-.08.06-.08.05.01.06-.03.13-.03.07.03.1.07.18.05.08.05.03.07.08s0 .06-.01.12c-.02.05-.19.21-.22.26s-.13.2-.17.21c-.04 0-.12.09-.12.09s-.11.16-.17.19c-.07.03-.14.11-.2.2-.07.08-.14.34-.15.37-.01.02.05.32.05.32l-.1.1h-.2c-.04 0 .03.45.03.48 0 .02-.05.13-.05.2s.11.16.2.21c.09.06.37.22.5.26.12.03.22.05.48.06.25.02.75.12.96.12h.77c.18 0 .63.05.9.09.27.05.83.18.95.19.12.02.69.07.79.07.11 0 .59-.08.88-.06.28.02.72-.22.93-.35.2-.14.25-.31.25-.31s-.03-.1-.03-.12c-.01-.15-.18-.17-.18-.17l-.29-.09c.07-.15-.18-.26-.18-.26l-.32-.11c-.04-.01-.39-.06-.44-.07-.05 0-.1-.02-.18-.03-.08 0-.25-.06-.31-.1-.07-.03-.47-.23-.48-.25-.01-.03-.35-.3-.38-.32-.03-.01-.13-.07-.2-.09-.07-.03-.29-.23-.35-.29-.07-.06-.13-.12-.16-.15-.03-.02-.05-.16-.05-.16l-.11-.23.2-.06.02-.14s-.01-.04-.04-.08c-.02-.05 0 0-.07-.11s0 0 .01-.03.08-.02.12-.02.15-.25.15-.25v-.07l-.1-.08-.12-.07-.07-.09s.02-.06.31-.27c.04-.03.11-.12.11-.12l.16-.32s.11-.37.12-.38c0 0 .3-.66.37-.78.07-.13 1.28-2.84 1.4-3.02s.1-.18.16-.24.27-.43.3-.45c.03-.01.05-.08.05-.08s1.01-1.4 1.03-1.46.35-.64.48-.78.55-1.49.65-1.54c.09-.04.16-.42.2-.41.04 0 0-.55-.16-.91-.21-.47-1.8-2.54-1.8-2.54v-.09l.07-.32c.07-.32-.02-.2-.02-.26 0-.05-.01-.07-.01-.07s-.1-.27-.13-.3c-.04-.02-.06-.37-.06-.37v-.02s.01-.15.03-.18c.01-.02.06-.15.1-.2.03-.04.13-.1.2-.18s.06-.2.07-.23.11-.59.15-.77.03-.12.04-.18c.02-.05-.03-.1 0-.15.02-.04.14-.41.14-.41s-.03-.14-.02-.19c0-.04.08-.14.1-.19.01-.04.08-.1.1-.14s.07-.06.16-.08c.09-.03.08-.04.15-.05.08-.02.07-.04.13-.05.06-.02.02-.12.04-.19s.02-.14.02-.17v-.14s.05-.05.18-.08l.09-.09.1-.14.15-.15.19-.06s.06-.14.07-.18a.4.4 0 0 0-.08-.19c-.02-.02.01-.2 0-.31 0-.11.02-.15.04-.2s0 0 0-.04.04-.01.15.05c.01 0 .01 0 .02.01-.02-.01-.04-.02 0 .03.07.08 0 0 .04.05s0 .04.04.13.04.01.12.07c.07.05.05.11.02.15-.02.05 0 .19 0 .19s.05.18.01.27c-.01.04.02.11.05.16s.16.15.16.21c0 .07.17.09.21.12s.28.09.3.13.14.03.14.06.35.04.39.05c.04 0 .2.01.25.01s.19-.03.23-.01c.03.01.2-.03.22-.03.03 0 .26-.1.33-.11.07-.02.17-.08.17-.08l.25-.22s.19-.03.19 0c.06.03.22.05.35.02.12-.04.12-.22.12-.26s-.1-.1-.13-.1-.17-.04-.17-.04l-.15-.09h.15c.04 0 .21-.04.25-.03.04 0 .27-.01.42-.07s.03-.26-.17-.25zm-41.22-8.16c-.27.27-.31.57-.45.91-.04.1-.18.49-.32.42-.05-.03-.04-.3-.04-.37-.02-.47-.08-.83-.07-1.29.01-.26.44-.15.62-.18.32-.05.64-.28.96-.3-.19.33-.42.54-.7.81m7.85 12.64c-.16.31-.8 1.56-1.07 2.46-.27.89-.22 1.88-.22 1.88s-.98-1.11-1.03-1.17c-.06-.06-.41-.5-.43-.56-.01-.05-.17-.23-.17-.23s-.09-.07-.11-.09a.64.64 0 0 1-.15-.25c-.01-.05-.15-.1-.18-.16-.02-.05-.05-.04-.08-.11s-.02-.03-.04-.12c-.01-.09.02-.11-.06-.17-.08-.05-.27-.14-.27-.14-.14-.1-.17-.15-.2-.21-.04-.06-.13-.12-.17-.19a1.2 1.2 0 0 0-.21-.23c-.03-.03-.15-.15-.18-.17-.03-.03-.03-.14-.04-.21 0-.07-.09-.18-.14-.22l-.16-.08-.21-.11.66-.4s.1-.11 0-.22-.3-.67-.35-.72c-.04-.05-.22-.29-.27-.36s-.21-.37-.21-.37-.03-.19-.13-.27-.17-.31-.15-.34c.01-.03 0-.15 0-.15s.56-.13.61-.15c.06-.02.46-.25.46-.25s.15-.16.23-.22.29-.37.29-.37.12-.25.19-.32c.06-.07.16-.22.16-.22s.22-.49.22-.54c0-.06-.02-.38-.02-.38s.17-.16.4-.28.7-.18.87-.25.27-.13.27-.13.34.76.41.95.09.41.25.58.37.88.45 1.52c.04.36.28.75.53.95.24.19.8 1.04.8 1.04l-.53.99zm2.52 16.2-.1.09.07.12-.1.09-.1.74s-.05.5-.06.58c0 .08-.06.43-.07.5-.01.06.05.51.05.51l.09.54-.1.55-.14.19s-.19.18-.23.35c-.01.05 0-.89 0-.93.02-.38-.23-1.89-.25-1.95-.01-.06-.08-.2-.05-.41s.21-.58.22-.64-.06-.28-.09-.37a1 1 0 0 0-.12-.21s-.19-.13-.17-.28c.02-.14.14-.13.14-.23 0-.11-.03-.07-.04-.19 0-.13.06-.1.08-.2.01-.1-.03-.04.02-.24.05-.19.03-.24.02-.24l.17.36s.22.37.29.36c.06-.01.15.25.15.25l.05.28c.07.22.12.34.12.34l.14.04zm18.43-31.32c-.06.04-.1.07-.13.08.04-.12.12-.27.26-.36 0 0-.09.11-.13.28m.27-.17s-.03.02-.04.03c.02-.02.04-.05.07-.07 0 0-.01.02-.03.04m8.53 1.21v-.03s.02.01.03.02c-.01 0-.02.01-.02.01z"/>
    </svg>