<svg xmlns="http://www.w3.org/2000/svg" viewBox="0 0 1200 630" width="1200" height="630" role="img" aria-hidden="true">
  <defs><linearGradient id="g" x1="0" y1="0" x2="1" y2="1">
    <stop offset="0" stop-color="#f0fdfa"/><stop offset="1" stop-color="#5eead4" stop-opacity="0.45"/>
  </linearGradient></defs>
  <rect width="1200" height="630" fill="url(#g)"/>
  <path d="M0 640 L210 400 L360 540 L560 300 L790 560 L960 430 L1200 620 L1200 800 L0 800 Z" fill="#0f766e" opacity="0.9"/><path d="M0 720 L260 560 L470 690 L700 520 L940 680 L1200 560 L1200 800 L0 800 Z" fill="#14b8a6" opacity="0.95"/><circle cx="940" cy="210" r="72" fill="#5eead4" opacity="0.8"/>
  <circle cx="238" cy="733" r="16" fill="#ffffff" opacity="0.08"/><circle cx="926" cy="712" r="15" fill="#ffffff" opacity="0.08"/><circle cx="502" cy="385" r="10" fill="#ffffff" opacity="0.08"/><circle cx="947" cy="76" r="11" fill="#ffffff" opacity="0.08"/><circle cx="981" cy="137" r="10" fill="#ffffff" opacity="0.08"/><circle cx="485" cy="774" r="12" fill="#ffffff" opacity="0.08"/><circle cx="62" cy="74" r="14" fill="#ffffff" opacity="0.08"/><circle cx="576" cy="23" r="8" fill="#ffffff" opacity="0.08"/><circle cx="546" cy="209" r="8" fill="#ffffff" opacity="0.08"/><circle cx="574" cy="242" r="5" fill="#ffffff" opacity="0.08"/><circle cx="673" cy="26" r="13" fill="#ffffff" opacity="0.08"/><circle cx="184" cy="648" r="10" fill="#ffffff" opacity="0.08"/><circle cx="493" cy="327" r="15" fill="#ffffff" opacity="0.08"/><circle cx="1140" cy="626" r="7" fill="#ffffff" opacity="0.08"/><circle cx="31" cy="605" r="13" fill="#ffffff" opacity="0.08"/><circle cx="353" cy="181" r="12" fill="#ffffff" opacity="0.08"/><circle cx="12" cy="501" r="13" fill="#ffffff" opacity="0.08"/><circle cx="1181" cy="578" r="8" fill="#ffffff" opacity="0.08"/><circle cx="241" cy="717" r="4" fill="#ffffff" opacity="0.08"/><circle cx="866" cy="138" r="10" fill="#ffffff" opacity="0.08"/><circle cx="156" cy="748" r="10" fill="#ffffff" opacity="0.08"/><circle cx="889" cy="253" r="4" fill="#ffffff" opacity="0.08"/><circle cx="174" cy="738" r="5" fill="#ffffff" opacity="0.08"/><circle cx="626" cy="195" r="4" fill="#ffffff" opacity="0.08"/><circle cx="897" cy="746" r="10" fill="#ffffff" opacity="0.08"/><circle cx="590" cy="677" r="4" fill="#ffffff" opacity="0.08"/>
</svg>
