<svg xmlns="http://www.w3.org/2000/svg" viewBox="0 0 1200 800" width="1200" height="800" role="img" aria-hidden="true">
  <defs><linearGradient id="g" x1="0" y1="0" x2="1" y2="1">
    <stop offset="0" stop-color="#ecfeff"/><stop offset="1" stop-color="#22d3ee" stop-opacity="0.45"/>
  </linearGradient></defs>
  <rect width="1200" height="800" fill="url(#g)"/>
  <path d="M120 660 L120 330 A90 90 0 0 1 300 330 L300 660 Z" fill="#155e75" opacity="0.85"/><path d="M320 660 L320 352 A90 90 0 0 1 500 352 L500 660 Z" fill="#155e75" opacity="0.74"/><path d="M520 660 L520 374 A90 90 0 0 1 700 374 L700 660 Z" fill="#155e75" opacity="0.63"/><path d="M720 660 L720 396 A90 90 0 0 1 900 396 L900 660 Z" fill="#155e75" opacity="0.52"/><path d="M920 660 L920 418 A90 90 0 0 1 1100 418 L1100 660 Z" fill="#155e75" opacity="0.41"/>
  <circle cx="650" cy="217" r="16" fill="#ffffff" opacity="0.08"/><circle cx="841" cy="660" r="12" fill="#ffffff" opacity="0.08"/><circle cx="886" cy="301" r="8" fill="#ffffff" opacity="0.08"/><circle cx="158" cy="720" r="10" fill="#ffffff" opacity="0.08"/><circle cx="1048" cy="281" r="16" fill="#ffffff" opacity="0.08"/><circle cx="338" cy="255" r="13" fill="#ffffff" opacity="0.08"/><circle cx="98" cy="125" r="8" fill="#ffffff" opacity="0.08"/><circle cx="614" cy="39" r="14" fill="#ffffff" opacity="0.08"/><circle cx="865" cy="249" r="16" fill="#ffffff" opacity="0.08"/><circle cx="1138" cy="86" r="10" fill="#ffffff" opacity="0.08"/><circle cx="999" cy="503" r="11" fill="#ffffff" opacity="0.08"/><circle cx="834" cy="78" r="16" fill="#ffffff" opacity="0.08"/><circle cx="1173" cy="290" r="10" fill="#ffffff" opacity="0.08"/><circle cx="684" cy="141" r="10" fill="#ffffff" opacity="0.08"/><circle cx="247" cy="600" r="3" fill="#ffffff" opacity="0.08"/><circle cx="412" cy="233" r="13" fill="#ffffff" opacity="0.08"/><circle cx="960" cy="750" r="16" fill="#ffffff" opacity="0.08"/><circle cx="702" cy="253" r="7" fill="#ffffff" opacity="0.08"/><circle cx="761" cy="511" r="8" fill="#ffffff" opacity="0.08"/><circle cx="695" cy="195" r="11" fill="#ffffff" opacity="0.08"/><circle cx="96" cy="429" r="9" fill="#ffffff" opacity="0.08"/><circle cx="473" cy="635" r="6" fill="#ffffff" opacity="0.08"/><circle cx="651" cy="780" r="13" fill="#ffffff" opacity="0.08"/><circle cx="877" cy="52" r="15" fill="#ffffff" opacity="0.08"/><circle cx="703" cy="778" r="12" fill="#ffffff" opacity="0.08"/><circle cx="942" cy="16" r="8" fill="#ffffff" opacity="0.08"/>
</svg>
