<svg xmlns="http://www.w3.org/2000/svg" viewBox="0 0 320 320" width="320" height="320" role="img" aria-hidden="true">
  <defs>
    <linearGradient id="bg2" x1="0" y1="0" x2="1" y2="1">
      <stop offset="0" stop-color="#5eead4"/><stop offset="1" stop-color="#0f766e"/>
    </linearGradient>
    <clipPath id="cl2"><circle cx="160" cy="160" r="160"/></clipPath>
  </defs>
  <g clip-path="url(#cl2)">
    <rect width="320" height="320" fill="url(#bg2)"/>
    <circle cx="63" cy="208" r="13" fill="#ffffff" opacity="0.10"/><circle cx="118" cy="124" r="6" fill="#ffffff" opacity="0.10"/><circle cx="293" cy="109" r="6" fill="#ffffff" opacity="0.10"/><circle cx="114" cy="244" r="10" fill="#ffffff" opacity="0.10"/><circle cx="299" cy="254" r="6" fill="#ffffff" opacity="0.10"/><circle cx="95" cy="173" r="10" fill="#ffffff" opacity="0.10"/><circle cx="249" cy="38" r="4" fill="#ffffff" opacity="0.10"/><circle cx="277" cy="269" r="8" fill="#ffffff" opacity="0.10"/><circle cx="198" cy="146" r="13" fill="#ffffff" opacity="0.10"/>
    <path d="M40 320c0-58 54-92 120-92s120 34 120 92z" fill="#0f766e" opacity="0.92"/>
    <circle cx="160" cy="146" r="56" fill="#0f766e" opacity="0.92"/>
    <circle cx="160" cy="74" r="18" fill="#0f766e"/><path d="M104 152c0-36 26-62 56-62s56 26 56 62c0-15-16-23-56-23s-56 8-56 23z" fill="#0f766e"/>
  </g>
</svg>
